<?xml version="1.0" standalone="no"?>
<!DOCTYPE svg PUBLIC "-//W3C//DTD SVG 20010904//EN"
 "http://www.w3.org/TR/2001/REC-SVG-20010904/DTD/svg10.dtd">
<svg version="1.0" xmlns="http://www.w3.org/2000/svg"
 width="500.000000pt" height="500.000000pt" viewBox="0 0 500.000000 500.000000"
 preserveAspectRatio="xMidYMid meet">

<g transform="translate(0.000000,500.000000) scale(0.100000,-0.100000)"
fill="#000000" stroke="none">
<path d="M2660 3936 c0 -2 8 -10 18 -17 15 -13 16 -12 3 4 -13 16 -21 21 -21
13z"/>
<path d="M2971 3824 c0 -11 3 -14 6 -6 3 7 2 16 -1 19 -3 4 -6 -2 -5 -13z"/>
<path d="M2816 3737 c3 -10 9 -15 12 -12 3 3 0 11 -7 18 -10 9 -11 8 -5 -6z"/>
<path d="M2846 3451 c-3 -5 1 -11 9 -15 8 -3 15 -1 15 4 0 13 -18 22 -24 11z"/>
<path d="M3387 3413 c-10 -9 -9 -23 1 -23 5 0 9 7 9 15 0 17 -1 18 -10 8z"/>
<path d="M3345 3371 c-3 -5 -2 -12 3 -15 5 -3 9 1 9 9 0 17 -3 19 -12 6z"/>
<path d="M3085 3330 c3 -5 8 -10 11 -10 2 0 4 5 4 10 0 6 -5 10 -11 10 -5 0
-7 -4 -4 -10z"/>
<path d="M2940 3326 c0 -2 8 -10 18 -17 15 -13 16 -12 3 4 -13 16 -21 21 -21
13z"/>
<path d="M2980 3255 c0 -15 -2 -16 -17 -4 -16 13 -17 12 -5 -2 8 -10 21 -15
33 -12 11 3 17 9 12 12 -4 3 -11 10 -15 15 -5 5 -8 1 -8 -9z"/>
<path d="M2853 3235 c0 -8 4 -12 9 -9 4 3 8 9 8 15 0 5 -4 9 -8 9 -5 0 -9 -7
-9 -15z"/>
<path d="M2986 3215 c-3 -8 -1 -15 4 -15 6 0 10 7 10 15 0 8 -2 15 -4 15 -2 0
-6 -7 -10 -15z"/>
<path d="M2953 3165 c-3 -9 -3 -18 -1 -21 3 -3 8 4 11 16 6 23 -1 27 -10 5z"/>
<path d="M2630 2999 c0 -5 5 -7 10 -4 6 3 10 8 10 11 0 2 -4 4 -10 4 -5 0 -10
-5 -10 -11z"/>
<path d="M3347 2966 c-17 -13 -17 -14 0 -20 10 -4 14 -4 10 0 -4 4 -2 13 4 21
14 17 9 16 -14 -1z"/>
<path d="M2665 2950 c-16 -7 -17 -9 -3 -9 9 -1 20 4 23 9 7 11 7 11 -20 0z"/>
<path d="M2910 2926 c0 -2 7 -7 16 -10 8 -3 12 -2 9 4 -6 10 -25 14 -25 6z"/>
<path d="M2710 2906 c14 -18 13 -18 -10 -12 -22 6 -23 5 -7 -5 26 -16 44 3 20
22 -17 13 -17 13 -3 -5z"/>
<path d="M2496 2892 c-3 -5 1 -9 9 -9 8 0 12 4 9 9 -3 4 -7 8 -9 8 -2 0 -6 -4
-9 -8z"/>
<path d="M2761 2886 c-9 -10 -8 -15 2 -19 8 -3 13 3 13 14 0 23 0 23 -15 5z"/>
<path d="M3255 2880 c6 -31 21 -45 30 -29 5 8 4 10 -3 5 -7 -4 -13 -2 -13 3
-3 26 -4 30 -11 37 -4 3 -5 -4 -3 -16z"/>
<path d="M3028 2883 c7 -3 16 -2 19 1 4 3 -2 6 -13 5 -11 0 -14 -3 -6 -6z"/>
<path d="M2933 2847 c-1 -11 -8 -24 -15 -28 -8 -6 -9 -9 -2 -9 16 0 35 25 27
34 -4 4 1 4 11 0 14 -5 15 -9 4 -15 -7 -5 -9 -9 -4 -9 5 0 1 -10 -10 -22 l-19
-23 24 20 c21 18 24 18 18 3 -6 -17 2 -22 31 -19 10 2 16 -10 14 -30 -1 -3 6
-6 14 -6 10 0 11 4 4 11 -5 5 -10 18 -10 28 0 20 -30 25 -31 6 0 -7 -4 -4 -9
7 -5 13 -3 24 6 31 17 14 18 30 2 40 -7 5 -9 2 -5 -8 4 -12 1 -14 -14 -11 -10
3 -17 9 -14 12 2 4 -2 8 -8 8 -7 0 -14 -9 -14 -20z"/>
<path d="M3348 2843 c7 -3 16 -2 19 1 4 3 -2 6 -13 5 -11 0 -14 -3 -6 -6z"/>
<path d="M3006 2825 c-3 -8 -1 -15 4 -15 6 0 10 4 10 10 0 5 8 7 18 4 14 -5
15 -4 2 5 -20 14 -27 14 -34 -4z"/>
<path d="M3250 2821 c0 -5 7 -11 15 -15 8 -3 15 -1 15 5 0 6 5 7 12 3 7 -4 8
-3 4 4 -8 14 -46 16 -46 3z"/>
<path d="M3133 2766 c-4 -7 -15 -16 -23 -19 -8 -3 -4 -5 10 -4 18 1 26 7 26
19 0 22 -2 22 -13 4z"/>
<path d="M3188 2762 c-3 -11 0 -19 7 -19 7 0 10 8 7 19 -2 10 -6 18 -7 18 -1
0 -5 -8 -7 -18z"/>
<path d="M3250 2770 c-13 -9 -13 -10 0 -10 13 0 13 -1 0 -10 -8 -5 -11 -12 -7
-17 5 -4 12 -1 17 7 5 8 12 11 16 7 4 -4 2 -13 -4 -19 -16 -16 -15 -25 4 -32
8 -3 12 -2 9 4 -3 5 1 22 10 37 l15 28 -6 -26 c-3 -15 -2 -29 3 -32 5 -3 9 9
8 26 0 20 -5 31 -12 30 -7 -2 -13 2 -13 7 0 13 -20 13 -40 0z m35 -10 c3 -6
-1 -7 -9 -4 -18 7 -21 14 -7 14 6 0 13 -4 16 -10z"/>
<path d="M3059 2758 c-6 -12 -4 -46 2 -42 4 2 5 12 2 21 -5 12 -3 14 7 8 9 -5
11 -4 6 3 -7 11 -14 15 -17 10z"/>
<path d="M2840 2710 c-12 -7 -10 -9 7 -7 12 0 19 5 17 9 -6 10 -6 10 -24 -2z"/>
<path d="M3308 2663 c5 -21 7 -23 10 -9 2 10 0 22 -6 28 -6 6 -7 0 -4 -19z"/>
<path d="M3255 2669 c-11 -16 -1 -19 13 -3 7 8 8 14 3 14 -5 0 -13 -5 -16 -11z"/>
<path d="M3307 2603 c-4 -3 -7 -15 -7 -25 0 -11 -4 -16 -10 -13 -5 3 -10 -3
-10 -15 0 -12 5 -18 10 -15 6 3 10 -3 10 -14 0 -12 5 -21 10 -21 6 0 10 25 10
55 0 56 -1 60 -13 48z"/>
<path d="M3280 2490 c0 -4 7 -11 16 -14 8 -3 12 -10 9 -16 -3 -5 -1 -10 4 -10
20 0 11 38 -9 43 -11 3 -20 2 -20 -3z"/>
<path d="M3279 2445 c-1 -3 -2 -8 -3 -12 -1 -5 -5 -14 -9 -20 -5 -7 -5 -13 0
-14 4 0 16 -2 26 -4 9 -2 15 1 11 6 -3 5 0 9 5 9 6 0 11 7 11 16 0 13 -3 14
-14 5 -11 -9 -16 -9 -22 0 -5 8 -3 9 6 4 9 -5 11 -4 6 3 -8 13 -15 15 -17 7z"/>
<path d="M3257 2373 c-8 -17 -1 -37 13 -40 13 -4 13 -3 0 6 -14 10 -7 16 14
12 5 -1 4 5 -4 13 -14 18 -17 19 -23 9z"/>
<path d="M3243 2315 c0 -18 16 -19 37 -4 13 9 13 10 -1 6 -9 -3 -21 -1 -26 4
-6 6 -10 4 -10 -6z"/>
<path d="M3190 2303 c0 -19 17 -24 30 -8 9 10 9 15 1 15 -6 0 -11 -6 -11 -12
0 -9 -4 -8 -10 2 -6 9 -10 10 -10 3z"/>
<path d="M3295 2300 c-3 -6 1 -7 9 -4 18 7 21 14 7 14 -6 0 -13 -4 -16 -10z"/>
<path d="M3263 2292 c-8 -5 -8 -12 2 -25 11 -16 13 -15 13 8 0 14 -1 25 -2 25
0 0 -6 -4 -13 -8z"/>
<path d="M3226 2273 c-6 -14 -5 -15 5 -6 7 7 10 15 7 18 -3 3 -9 -2 -12 -12z"/>
<path d="M3170 2260 c-8 -5 -12 -11 -10 -14 3 -2 14 2 24 10 22 15 10 19 -14
4z"/>
<path d="M3252 2220 c0 -14 2 -19 5 -12 2 6 2 18 0 25 -3 6 -5 1 -5 -13z"/>
<path d="M3270 2180 c0 -5 5 -10 11 -10 5 0 7 5 4 10 -3 6 -8 10 -11 10 -2 0
-4 -4 -4 -10z"/>
<path d="M3251 2153 c-1 -23 22 -32 34 -13 3 5 0 7 -9 4 -8 -3 -16 2 -19 13
-4 14 -5 14 -6 -4z"/>
<path d="M2587 2139 c7 -7 15 -10 18 -7 3 3 -2 9 -12 12 -14 6 -15 5 -6 -5z"/>
<path d="M2635 2110 c3 -5 8 -10 11 -10 2 0 4 5 4 10 0 6 -5 10 -11 10 -5 0
-7 -4 -4 -10z"/>
<path d="M2665 2089 c-4 -6 -5 -12 -2 -15 2 -3 7 2 10 11 7 17 1 20 -8 4z"/>
<path d="M3080 2091 c0 -6 4 -13 10 -16 6 -3 7 1 4 9 -7 18 -14 21 -14 7z"/>
<path d="M3185 2060 c-3 -5 -1 -10 4 -10 6 0 11 5 11 10 0 6 -2 10 -4 10 -3 0
-8 -4 -11 -10z"/>
<path d="M3070 2049 c0 -5 6 -7 13 -4 6 4 1 -2 -12 -13 -18 -14 -21 -21 -11
-27 9 -5 11 -4 6 3 -4 7 -2 13 3 13 26 3 30 4 37 12 5 4 2 12 -6 17 -20 13
-30 12 -30 -1z"/>
<path d="M3166 2025 c-11 -8 -17 -15 -14 -15 4 0 14 -3 24 -7 13 -5 16 -3 11
10 -3 8 -1 18 6 21 7 2 8 5 2 5 -5 0 -19 -6 -29 -14z"/>
<path d="M3157 1979 c4 -13 8 -18 11 -10 2 7 -1 18 -6 23 -8 8 -9 4 -5 -13z"/>
<path d="M3012 1961 c-11 -7 -11 -9 0 -14 9 -3 15 1 15 9 0 8 -1 14 -1 14 -1
0 -7 -4 -14 -9z"/>
<path d="M3053 1950 c1 -11 5 -20 10 -20 5 0 6 7 3 16 -3 8 -2 12 4 9 6 -3 10
-1 10 4 0 6 -6 11 -14 11 -9 0 -14 -9 -13 -20z"/>
<path d="M3080 1940 c0 -5 5 -10 10 -10 6 0 10 5 10 10 0 6 -4 10 -10 10 -5 0
-10 -4 -10 -10z"/>
<path d="M3111 1931 c-8 -14 -7 -22 7 -32 14 -11 15 -11 5 0 -13 16 -6 44 10
34 6 -3 7 -1 3 5 -10 16 -14 15 -25 -7z"/>
<path d="M2966 1924 c-3 -9 -4 -20 0 -25 3 -5 -3 -9 -12 -9 -22 0 -13 -9 13
-14 12 -3 20 1 20 10 0 8 -4 14 -9 14 -4 0 -8 5 -8 11 0 5 4 7 10 4 6 -3 7 1
4 9 -8 20 -10 20 -18 0z"/>
<path d="M2995 1930 c3 -5 8 -10 11 -10 2 0 4 5 4 10 0 6 -5 10 -11 10 -5 0
-7 -4 -4 -10z"/>
<path d="M2808 1909 c-7 -22 4 -99 15 -92 6 4 8 0 4 -10 -3 -8 1 -21 9 -28 16
-13 25 -6 37 26 3 6 7 7 11 4 3 -3 -5 -18 -19 -33 -22 -23 -24 -30 -13 -43 7
-9 11 -26 10 -38 -2 -13 2 -26 7 -30 6 -3 11 -15 11 -26 0 -10 7 -19 15 -19 8
0 15 5 15 11 0 5 -4 8 -9 4 -6 -3 -8 4 -6 15 2 11 -3 24 -13 30 -9 5 -12 10
-6 10 8 0 11 15 9 40 -2 26 3 46 12 55 8 8 11 20 8 25 -8 13 14 42 26 34 5 -3
9 0 9 5 0 15 -16 14 -41 -1 -18 -11 -23 -10 -40 11 -10 12 -17 26 -15 30 3 4
-4 12 -14 19 -11 7 -20 8 -22 1z m45 -74 c4 -8 2 -17 -3 -20 -6 -4 -10 3 -10
14 0 25 6 27 13 6z"/>
<path d="M3131 1864 c0 -11 3 -14 6 -6 3 7 2 16 -1 19 -3 4 -6 -2 -5 -13z"/>
<path d="M2915 1829 c-9 -14 -2 -20 14 -10 8 6 9 11 3 15 -6 3 -14 1 -17 -5z"/>
<path d="M3132 1823 c5 -26 38 -29 38 -4 0 15 -6 21 -21 21 -14 0 -19 -5 -17
-17z"/>
<path d="M3170 1745 c0 -9 -4 -13 -10 -10 -16 10 1 -28 21 -47 10 -10 20 -14
23 -9 3 5 -1 12 -9 15 -11 4 -14 13 -9 30 3 13 1 27 -5 30 -6 4 -11 0 -11 -9z"/>
<path d="M2898 1698 c-6 -16 20 -68 33 -68 6 0 3 -7 -5 -16 -21 -21 -20 -29 7
-43 l22 -12 -24 5 c-17 3 -21 2 -13 -6 17 -17 50 0 50 27 0 14 -5 25 -10 25
-5 0 -4 9 2 19 7 14 7 22 -2 27 -7 5 -8 3 -3 -6 5 -9 4 -11 -3 -6 -7 4 -12 14
-12 22 0 8 -10 14 -22 14 -17 0 -19 3 -9 9 8 5 9 11 3 15 -6 3 -12 1 -14 -6z"/>
<path d="M2200 1666 c0 -2 7 -7 16 -10 8 -3 12 -2 9 4 -6 10 -25 14 -25 6z"/>
<path d="M3204 1642 c8 -8 19 -11 25 -8 19 12 12 22 -14 22 -22 0 -23 -2 -11
-14z"/>
<path d="M2600 1631 c0 -5 5 -13 10 -16 6 -3 10 -2 10 4 0 5 -4 13 -10 16 -5
3 -10 2 -10 -4z"/>
<path d="M2580 1615 c0 -8 4 -15 10 -15 5 0 7 7 4 15 -4 8 -8 15 -10 15 -2 0
-4 -7 -4 -15z"/>
<path d="M2175 1611 c-6 -11 13 -26 22 -17 4 3 1 6 -6 6 -7 0 -9 5 -6 10 3 6
4 10 1 10 -3 0 -7 -4 -11 -9z"/>
<path d="M3223 1607 c0 -7 9 -14 20 -14 11 -1 18 -1 16 0 -2 2 -11 8 -20 15
-12 9 -16 9 -16 -1z"/>
<path d="M2635 1580 c3 -16 -1 -17 -28 -9 -30 8 -30 7 -13 -6 11 -8 26 -15 34
-15 7 0 11 -4 8 -8 -3 -5 1 -9 9 -9 11 0 12 4 4 14 -9 10 -6 15 9 20 20 8 20
8 -3 19 -20 10 -23 9 -20 -6z"/>
<path d="M2996 1571 c-10 -16 5 -41 22 -39 9 2 17 -1 18 -7 2 -26 18 -46 31
-41 8 3 11 1 8 -4 -3 -5 3 -18 14 -29 19 -19 20 -19 18 -1 -1 10 -6 18 -12 17
-5 -1 -9 6 -7 16 2 12 -4 17 -18 17 -12 0 -19 4 -16 8 3 5 -8 23 -24 40 -16
18 -31 28 -34 23z"/>
<path d="M2563 1521 c1 -11 6 -17 14 -14 10 4 11 9 2 19 -15 19 -18 18 -16 -5z"/>
<path d="M2932 1508 c0 -17 4 -28 10 -26 16 6 18 31 3 45 -9 8 -12 4 -13 -19z"/>
<path d="M3295 1519 c-4 -6 0 -9 11 -7 16 2 18 -3 16 -29 -3 -27 0 -32 12 -27
21 8 20 37 -2 57 -22 20 -28 21 -37 6z"/>
<path d="M2600 1479 c0 -5 -4 -7 -10 -4 -19 12 -10 -11 10 -25 14 -10 16 -16
7 -22 -7 -5 -2 -7 14 -6 14 1 26 8 26 14 0 7 -3 13 -6 12 -24 -2 -32 4 -26 22
4 11 2 20 -4 20 -6 0 -11 -5 -11 -11z"/>
<path d="M2694 1472 c3 -5 2 -12 -3 -14 -5 -1 2 -11 15 -21 13 -10 24 -13 24
-7 0 5 -4 10 -10 10 -5 0 -10 6 -10 14 0 8 -5 18 -12 22 -6 4 -8 3 -4 -4z"/>
<path d="M3349 1454 c-9 -11 -22 -13 -50 -9 -31 5 -37 4 -36 -11 1 -9 -5 -19
-13 -21 -10 -3 -11 -2 -3 4 7 5 9 14 4 22 -6 9 -10 7 -14 -8 -3 -14 -10 -19
-21 -15 -11 4 -16 1 -16 -10 0 -18 2 -19 92 -21 37 -1 65 2 62 7 -3 4 7 8 21
8 15 0 24 4 20 10 -4 6 -10 8 -15 5 -5 -3 -7 6 -4 19 5 30 -9 41 -27 20z m-37
-48 c7 4 8 2 4 -5 -9 -13 -26 -5 -25 12 0 9 2 8 6 -1 2 -6 10 -9 15 -6z m-52
-12 c0 -2 -7 -4 -15 -4 -8 0 -15 4 -15 10 0 5 7 7 15 4 8 -4 15 -8 15 -10z"/>
<path d="M2516 1433 c-6 -14 -5 -15 5 -6 7 7 10 15 7 18 -3 3 -9 -2 -12 -12z"/>
<path d="M3002 1433 c8 -10 7 -13 -3 -13 -11 0 -11 -2 1 -10 12 -7 11 -10 -5
-16 -11 -5 -30 -19 -42 -32 -13 -14 -23 -20 -23 -13 0 13 -46 15 -54 2 -3 -5
1 -14 8 -20 8 -7 17 -8 20 -3 3 5 39 7 81 4 l75 -4 0 46 c0 25 -4 46 -10 46
-5 0 -10 7 -10 15 0 10 -9 14 -24 13 -19 -2 -22 -5 -14 -15z"/>
<path d="M3386 1441 c-3 -5 0 -11 7 -14 8 -3 14 1 14 9 0 16 -13 19 -21 5z"/>
<path d="M3120 1417 c0 -9 13 -14 35 -15 21 -1 33 3 30 8 -4 6 -10 8 -15 5 -5
-3 -19 -1 -30 5 -16 8 -20 8 -20 -3z"/>
<path d="M2738 1403 c7 -3 16 -2 19 1 4 3 -2 6 -13 5 -11 0 -14 -3 -6 -6z"/>
<path d="M2760 1379 c0 -4 7 -10 16 -13 8 -3 12 -10 9 -16 -3 -5 0 -7 9 -4 28
11 26 32 -5 36 -16 3 -29 1 -29 -3z"/>
<path d="M2838 1353 c7 -3 16 -2 19 1 4 3 -2 6 -13 5 -11 0 -14 -3 -6 -6z"/>
<path d="M3340 1153 c0 -3 43 -54 68 -79 7 -7 20 -10 29 -7 13 5 12 2 -3 -15
-9 -12 -22 -18 -28 -15 -6 4 -5 -1 3 -10 9 -11 10 -17 2 -17 -6 0 -11 -5 -11
-11 0 -8 4 -8 13 -1 13 11 52 -9 40 -21 -3 -4 1 -7 10 -7 10 0 17 5 17 10 0 6
6 5 14 -2 9 -8 10 -15 4 -19 -7 -4 -6 -19 3 -42 10 -28 16 -34 26 -26 7 6 11
15 8 19 -3 5 3 11 12 13 17 4 17 5 0 6 -10 0 -15 5 -12 11 4 6 -1 7 -11 3 -12
-4 -15 -3 -10 5 8 13 -28 65 -38 55 -3 -3 -6 8 -6 25 0 23 -7 36 -25 48 -14 9
-22 20 -19 25 3 5 -5 9 -18 10 -13 0 -17 3 -10 6 6 2 12 11 12 18 0 20 -21 30
-31 14 -5 -8 -9 -9 -9 -3 0 6 -7 11 -15 11 -8 0 -15 -2 -15 -4z m116 -127 c1
-7 -5 -13 -12 -13 -8 0 -14 4 -14 9 0 4 5 8 11 8 5 0 7 6 3 13 -4 6 -3 8 1 4
5 -4 10 -13 11 -21z"/>
<path d="M3077 1123 c7 -61 8 -221 1 -216 -5 2 -8 0 -8 -6 0 -5 -12 -11 -27
-13 -16 -3 -2 -5 30 -5 55 -2 74 8 41 21 -9 3 -12 11 -8 18 12 19 15 100 4 93
-6 -4 -8 -10 -5 -15 3 -5 2 -11 -3 -14 -4 -2 -9 9 -10 26 -2 24 1 29 13 24 13
-5 16 1 13 32 -2 24 -8 36 -16 34 -8 -1 -11 2 -7 8 3 6 10 8 15 5 4 -3 10 1
13 9 3 8 -1 17 -9 20 -31 12 -41 6 -37 -21z"/>
<path d="M2830 1138 c0 -2 9 -11 20 -21 11 -9 20 -13 20 -7 0 5 -9 14 -20 20
-11 6 -20 9 -20 8z"/>
<path d="M2733 1055 c0 -22 2 -30 4 -17 2 12 2 30 0 40 -3 9 -5 -1 -4 -23z"/>
<path d="M3519 1073 c-13 -16 -12 -17 4 -4 16 13 21 21 13 21 -2 0 -10 -8 -17
-17z"/>
<path d="M1426 1027 c3 -10 9 -15 12 -12 3 3 0 11 -7 18 -10 9 -11 8 -5 -6z"/>
<path d="M2806 1016 c-25 -8 -35 -15 -28 -20 7 -4 16 -5 20 -2 4 2 14 0 22 -6
12 -8 12 -9 -2 -4 -10 3 -18 3 -18 -1 0 -14 80 -84 90 -78 5 3 7 0 4 -8 -4
-12 3 -15 33 -15 21 0 31 3 23 6 -8 3 -28 16 -43 28 -16 13 -36 24 -45 25 -11
0 -13 2 -4 6 9 3 3 14 -17 34 -27 25 -28 29 -11 29 11 0 20 5 20 10 0 6 -1 10
-2 9 -2 -1 -21 -7 -42 -13z"/>
<path d="M2731 984 c0 -11 3 -14 6 -6 3 7 2 16 -1 19 -3 4 -6 -2 -5 -13z"/>
<path d="M1442 981 c-11 -7 -11 -9 0 -14 9 -3 15 1 15 9 0 8 -1 14 -1 14 -1 0
-7 -4 -14 -9z"/>
<path d="M3337 942 c-37 -39 -34 -48 3 -10 17 17 29 32 27 34 -2 2 -16 -9 -30
-24z"/>
<path d="M2732 930 c0 -14 2 -19 5 -12 2 6 2 18 0 25 -3 6 -5 1 -5 -13z"/>
<path d="M2392 910 c0 -14 2 -19 5 -12 2 6 2 18 0 25 -3 6 -5 1 -5 -13z"/>
<path d="M2410 898 c0 -4 4 -8 9 -8 6 0 12 4 15 8 3 5 -1 9 -9 9 -8 0 -15 -4
-15 -9z"/>
<path d="M3540 895 c-7 -8 -11 -15 -9 -16 2 0 22 -2 44 -4 25 -2 31 -1 17 3
-13 4 -23 11 -22 17 2 16 -16 17 -30 0z m30 1 c0 -2 -7 -7 -16 -10 -8 -3 -12
-2 -9 4 6 10 25 14 25 6z"/>
<path d="M3270 882 c0 -4 9 -8 20 -8 11 0 20 4 20 8 0 4 -9 8 -20 8 -11 0 -20
-4 -20 -8z"/>
</g>
</svg>
